<svg width="74" height="74" viewBox="0 0 74 74" fill="none" xmlns="http://www.w3.org/2000/svg">
<path fill-rule="evenodd" clip-rule="evenodd" d="M20.4846 20.5897C11.2923 29.782 11.2923 44.6857 20.4846 53.878C29.6769 63.0702 44.5806 63.0703 53.7729 53.878L61.7168 61.8219C48.1372 75.4015 26.1203 75.4015 12.5407 61.8219C-1.03895 48.2423 -1.03895 26.2254 12.5407 12.6458L20.4846 20.5897Z" fill="white"/>
<path fill-rule="evenodd" clip-rule="evenodd" d="M19.1786 21.9135L11.2212 13.9965L13.8624 11.3418L21.8198 19.2588L19.1786 21.9135Z" fill="white"/>
<path fill-rule="evenodd" clip-rule="evenodd" d="M60.4032 63.1276L52.4458 55.2106L55.087 52.5559L63.0444 60.4729L60.4032 63.1276Z" fill="white"/>
<path fill-rule="evenodd" clip-rule="evenodd" d="M15.8243 27.088L6.08895 21.5003L7.95309 18.2524L17.6884 23.8401L15.8243 27.088Z" fill="white"/>
<path fill-rule="evenodd" clip-rule="evenodd" d="M66.3125 56.2367L56.5772 50.649L58.4414 47.4011L68.1767 52.9888L66.3125 56.2367Z" fill="white"/>
<path fill-rule="evenodd" clip-rule="evenodd" d="M13.9228 32.9464L3.07296 30.0688L4.03298 26.4492L14.8828 29.3268L13.9228 32.9464Z" fill="white"/>
<path fill-rule="evenodd" clip-rule="evenodd" d="M70.2333 48.0282L59.3835 45.1506L60.3435 41.5309L71.1933 44.4085L70.2333 48.0282Z" fill="white"/>
<path fill-rule="evenodd" clip-rule="evenodd" d="M13.602 39.0964L2.37717 39.125L2.36763 35.3802L13.5925 35.3516L13.602 39.0964Z" fill="white"/>
<path fill-rule="evenodd" clip-rule="evenodd" d="M71.8979 39.0964L60.6731 39.125L60.6635 35.3802L71.8884 35.3516L71.8979 39.0964Z" fill="white"/>
<path fill-rule="evenodd" clip-rule="evenodd" d="M14.8855 45.1326L4.05052 48.0654L3.07208 44.4507L13.9071 41.5178L14.8855 45.1326Z" fill="white"/>
<path fill-rule="evenodd" clip-rule="evenodd" d="M71.1941 30.0418L60.3591 32.9746L59.3807 29.3598L70.2157 26.427L71.1941 30.0418Z" fill="white"/>
<path fill-rule="evenodd" clip-rule="evenodd" d="M17.6846 50.6166L7.97784 56.2537L6.09718 53.0154L15.8039 47.3782L17.6846 50.6166Z" fill="white"/>
<path fill-rule="evenodd" clip-rule="evenodd" d="M68.1685 21.4679L58.4617 27.1051L56.5811 23.8667L66.2878 18.2295L68.1685 21.4679Z" fill="white"/>
<path fill-rule="evenodd" clip-rule="evenodd" d="M21.8095 55.1928L13.8925 63.1501L11.2378 60.5089L19.1548 52.5515L21.8095 55.1928Z" fill="white"/>
<path fill-rule="evenodd" clip-rule="evenodd" d="M63.0277 13.9694L55.1108 21.9268L52.4561 19.2855L60.373 11.3281L63.0277 13.9694Z" fill="white"/>
<path fill-rule="evenodd" clip-rule="evenodd" d="M26.9786 58.5483L21.3909 68.2836L18.1431 66.4195L23.7307 56.6842L26.9786 58.5483Z" fill="white"/>
<path fill-rule="evenodd" clip-rule="evenodd" d="M56.1222 8.05709L50.5345 17.7924L47.2866 15.9283L52.8743 6.19294L56.1222 8.05709Z" fill="white"/>
<path fill-rule="evenodd" clip-rule="evenodd" d="M32.8393 60.451L29.9617 71.3008L26.342 70.3408L29.2196 59.491L32.8393 60.451Z" fill="white"/>
<path fill-rule="evenodd" clip-rule="evenodd" d="M47.9227 4.13657L45.0451 14.9864L41.4255 14.0263L44.3031 3.17656L47.9227 4.13657Z" fill="white"/>
<path fill-rule="evenodd" clip-rule="evenodd" d="M38.9931 60.7695L39.0217 71.9944L35.2769 72.0039L35.2483 60.7791L38.9931 60.7695Z" fill="white"/>
<path fill-rule="evenodd" clip-rule="evenodd" d="M38.9877 2.47682L39.0163 13.7017L35.2715 13.7112L35.2429 2.48635L38.9877 2.47682Z" fill="white"/>
<path fill-rule="evenodd" clip-rule="evenodd" d="M45.0205 59.4831L47.9533 70.3181L44.3386 71.2966L41.4058 60.4616L45.0205 59.4831Z" fill="white"/>
<path fill-rule="evenodd" clip-rule="evenodd" d="M29.9277 3.17821L32.8606 14.0132L29.2458 14.9916L26.313 4.15664L29.9277 3.17821Z" fill="white"/>
<path fill-rule="evenodd" clip-rule="evenodd" d="M50.5099 56.6892L56.1471 66.3959L52.9087 68.2766L47.2715 58.5699L50.5099 56.6892Z" fill="white"/>
<path fill-rule="evenodd" clip-rule="evenodd" d="M21.3575 6.20728L26.9947 15.914L23.7564 17.7947L18.1192 8.08794L21.3575 6.20728Z" fill="white"/>
</svg>
