<svg width="70" height="24" viewBox="0 0 70 24" fill="none" xmlns="http://www.w3.org/2000/svg">
<path d="M2.73 23V6.5C2.73 4.68 3.27 3.23 4.35 2.15C5.43 1.05 6.97 0.499998 8.97 0.499998C9.65 0.499998 10.3 0.569999 10.92 0.709999C11.56 0.849998 12.1 1.07 12.54 1.37L11.31 4.76C11.05 4.58 10.76 4.44 10.44 4.34C10.12 4.24 9.78 4.19 9.42 4.19C8.74 4.19 8.21 4.39 7.83 4.79C7.47 5.17 7.29 5.75 7.29 6.53V8.03L7.41 10.04V23H2.73ZM0.24 10.82V7.22H11.43V10.82H0.24ZM14.07 23V0.739999H18.75V23H14.07ZM31.478 23V19.85L31.178 19.16V13.52C31.178 12.52 30.868 11.74 30.248 11.18C29.648 10.62 28.718 10.34 27.458 10.34C26.598 10.34 25.748 10.48 24.908 10.76C24.088 11.02 23.388 11.38 22.808 11.84L21.128 8.57C22.008 7.95 23.068 7.47 24.308 7.13C25.548 6.79 26.808 6.62 28.088 6.62C30.548 6.62 32.458 7.2 33.818 8.36C35.178 9.52 35.858 11.33 35.858 13.79V23H31.478ZM26.558 23.24C25.298 23.24 24.218 23.03 23.318 22.61C22.418 22.17 21.728 21.58 21.248 20.84C20.768 20.1 20.528 19.27 20.528 18.35C20.528 17.39 20.758 16.55 21.218 15.83C21.698 15.11 22.448 14.55 23.468 14.15C24.488 13.73 25.818 13.52 27.458 13.52H31.748V16.25H27.968C26.868 16.25 26.108 16.43 25.688 16.79C25.288 17.15 25.088 17.6 25.088 18.14C25.088 18.74 25.318 19.22 25.778 19.58C26.258 19.92 26.908 20.09 27.728 20.09C28.508 20.09 29.208 19.91 29.828 19.55C30.448 19.17 30.898 18.62 31.178 17.9L31.898 20.06C31.558 21.1 30.938 21.89 30.038 22.43C29.138 22.97 27.978 23.24 26.558 23.24ZM44.0236 23.24C42.6436 23.24 41.3136 23.08 40.0336 22.76C38.7736 22.42 37.7736 22 37.0336 21.5L38.5936 18.14C39.3336 18.6 40.2036 18.98 41.2036 19.28C42.2236 19.56 43.2236 19.7 44.2036 19.7C45.2836 19.7 46.0436 19.57 46.4836 19.31C46.9436 19.05 47.1736 18.69 47.1736 18.23C47.1736 17.85 46.9936 17.57 46.6336 17.39C46.2936 17.19 45.8336 17.04 45.2536 16.94C44.6736 16.84 44.0336 16.74 43.3336 16.64C42.6536 16.54 41.9636 16.41 41.2636 16.25C40.5636 16.07 39.9236 15.81 39.3436 15.47C38.7636 15.13 38.2936 14.67 37.9336 14.09C37.5936 13.51 37.4236 12.76 37.4236 11.84C37.4236 10.82 37.7136 9.92 38.2936 9.14C38.8936 8.36 39.7536 7.75 40.8736 7.31C41.9936 6.85 43.3336 6.62 44.8936 6.62C45.9936 6.62 47.1136 6.74 48.2536 6.98C49.3936 7.22 50.3436 7.57 51.1036 8.03L49.5436 11.36C48.7636 10.9 47.9736 10.59 47.1736 10.43C46.3936 10.25 45.6336 10.16 44.8936 10.16C43.8536 10.16 43.0936 10.3 42.6136 10.58C42.1336 10.86 41.8936 11.22 41.8936 11.66C41.8936 12.06 42.0636 12.36 42.4036 12.56C42.7636 12.76 43.2336 12.92 43.8136 13.04C44.3936 13.16 45.0236 13.27 45.7036 13.37C46.4036 13.45 47.1036 13.58 47.8036 13.76C48.5036 13.94 49.1336 14.2 49.6936 14.54C50.2736 14.86 50.7436 15.31 51.1036 15.89C51.4636 16.45 51.6436 17.19 51.6436 18.11C51.6436 19.11 51.3436 20 50.7436 20.78C50.1436 21.54 49.2736 22.14 48.1336 22.58C47.0136 23.02 45.6436 23.24 44.0236 23.24ZM62.8411 6.62C64.1211 6.62 65.2611 6.88 66.2611 7.4C67.2811 7.9 68.0811 8.68 68.6611 9.74C69.2411 10.78 69.5311 12.12 69.5311 13.76V23H64.8511V14.48C64.8511 13.18 64.5611 12.22 63.9811 11.6C63.4211 10.98 62.6211 10.67 61.5811 10.67C60.8411 10.67 60.1711 10.83 59.5711 11.15C58.9911 11.45 58.5311 11.92 58.1911 12.56C57.8711 13.2 57.7111 14.02 57.7111 15.02V23H53.0311V0.739999H57.7111V11.33L56.6611 9.98C57.2411 8.9 58.0711 8.07 59.1511 7.49C60.2311 6.91 61.4611 6.62 62.8411 6.62Z" fill="white"/>
</svg>
